<svg width="155" height="155" viewBox="0 0 155 155" fill="none" xmlns="http://www.w3.org/2000/svg">
<path d="M155 77.5C155 34.6979 120.302 0 77.5 0C34.6979 0 0 34.6979 0 77.5C0 120.302 34.6979 155 77.5 155C120.302 155 155 120.302 155 77.5Z" fill="#4C6FFF"/>
<path d="M43.5938 101.719C50.2816 101.719 55.7031 96.2972 55.7031 89.6094C55.7031 82.9216 50.2816 77.5 43.5938 77.5C36.9059 77.5 31.4844 82.9216 31.4844 89.6094C31.4844 96.2972 36.9059 101.719 43.5938 101.719Z" fill="#68463C"/>
<path d="M43.5938 99.2969H84.7656V159.529C84.7656 159.529 75.9427 164.688 64.1797 164.688C52.4166 164.688 43.5938 156.267 43.5938 156.267V99.2969Z" fill="#68463C"/>
<path d="M84.3069 128.631C84.3069 141.672 82.1999 140.437 68.4848 140.437C54.7697 140.437 48.4414 129.866 48.4414 116.824C48.4414 103.785 47.9206 92.0312 58.9886 92.0312C90.2865 93.1841 84.3069 115.589 84.3069 128.631Z" fill="#553329"/>
<path d="M111.131 87.4297C111.131 109.038 107.774 135.608 81.1338 135.608C54.4932 135.608 42.2094 109.038 42.2094 87.4297C36.3291 61.7578 37.5401 31.4844 77.501 31.4844C117.462 31.4844 111.131 65.8193 111.131 87.4297Z" fill="#836055"/>
<path d="M92.0312 99.2969H89.6094C88.2718 99.2969 87.1875 100.381 87.1875 101.719C87.1875 103.056 88.2718 104.141 89.6094 104.141H92.0312C93.3688 104.141 94.4531 103.056 94.4531 101.719C94.4531 100.381 93.3688 99.2969 92.0312 99.2969Z" fill="#68463C"/>
<path d="M92.0312 145.312H38.75C26.7119 145.312 16.9531 155.071 16.9531 167.109V179.219C16.9531 191.257 26.7119 201.016 38.75 201.016H92.0312C104.069 201.016 113.828 191.257 113.828 179.219V167.109C113.828 155.071 104.069 145.312 92.0312 145.312Z" fill="#FF4DD8"/>
<path fill-rule="evenodd" clip-rule="evenodd" d="M68.0983 66.5144C86.9792 69.2801 120.12 74.1336 123.516 43.5937C125.938 21.7969 93.2422 -3.63282 58.125 19.375C36.0617 22.6445 30.5423 39.4233 29.2853 53.8964C27.5842 55.6925 26.6375 58.0731 26.6406 60.5469C26.6406 61.8304 26.8901 63.0583 27.343 64.1797C26.8901 65.301 26.6406 66.5289 26.6406 67.8125C26.6406 70.4911 27.7281 72.9154 29.4839 74.6664C29.0776 75.9984 28.9633 77.4024 29.1488 78.7827C29.3343 80.1629 29.8151 81.4869 30.5586 82.6645C31.3021 83.842 32.2908 84.8454 33.4572 85.6063C34.6236 86.3672 35.9403 86.8676 37.3176 87.0736C38.695 87.2795 40.1005 87.186 41.4384 86.7995C42.7764 86.4131 44.0152 85.7427 45.0706 84.834C46.126 83.9254 46.9731 82.7999 47.5541 81.5343C48.1351 80.2686 48.4364 78.8926 48.4375 77.5C49.9157 77.5002 51.3743 77.1621 52.7016 76.5116C54.029 75.8612 55.1899 74.9156 56.0955 73.7473C57.001 72.579 57.6272 71.219 57.9261 69.7713C58.225 68.3237 58.1887 66.8269 57.8199 65.3955C57.9216 65.3906 58.0233 65.3906 58.125 65.3906C60.4306 65.3906 63.9133 65.8992 68.0983 66.5144Z" fill="#1B0B47"/>
<path d="M70.0625 111.406C70.0625 110.764 70.3177 110.148 70.7718 109.694C71.226 109.24 71.8421 108.984 72.4844 108.984H94.6276C95.2699 108.984 95.8859 109.24 96.3401 109.694C96.7943 110.148 97.0494 110.764 97.0494 111.406C97.0494 114.618 95.7736 117.698 93.5027 119.969C91.2317 122.24 88.1517 123.516 84.9401 123.516H82.1719C78.9603 123.516 75.8802 122.24 73.6093 119.969C71.3383 117.698 70.0625 114.618 70.0625 111.406Z" fill="#66253C"/>
<path fill-rule="evenodd" clip-rule="evenodd" d="M89.0142 122.813C87.706 123.28 86.3271 123.517 84.9382 123.516H82.17C79.0423 123.516 76.0358 122.305 73.7804 120.138C71.5249 117.971 70.1954 115.016 70.0703 111.891C71.9206 111.198 74.667 111.278 77.3771 111.358C78.2393 111.382 79.0966 111.406 79.9201 111.406C85.2724 111.406 89.6076 115.201 89.6076 119.883C89.6076 120.912 89.3969 121.9 89.0142 122.813Z" fill="#B03E67"/>
<path d="M72.6562 108.984H96.875V111.406C96.875 112.049 96.6198 112.665 96.1657 113.119C95.7115 113.573 95.0955 113.828 94.4531 113.828H75.0781C74.4358 113.828 73.8198 113.573 73.3656 113.119C72.9114 112.665 72.6562 112.049 72.6562 111.406V108.984Z" fill="white"/>
<path d="M79.9219 90.8203C79.9219 88.814 78.2954 87.1875 76.2891 87.1875C74.2827 87.1875 72.6562 88.814 72.6562 90.8203V93.2422C72.6562 95.2485 74.2827 96.875 76.2891 96.875C78.2954 96.875 79.9219 95.2485 79.9219 93.2422V90.8203Z" fill="#1B0B47"/>
<path d="M104.141 90.8203C104.141 88.814 102.514 87.1875 100.508 87.1875C98.5015 87.1875 96.875 88.814 96.875 90.8203V93.2422C96.875 95.2485 98.5015 96.875 100.508 96.875C102.514 96.875 104.141 95.2485 104.141 93.2422V90.8203Z" fill="#1B0B47"/>
</svg>